<svg xmlns="http://www.w3.org/2000/svg" viewBox="0 0 648 177" width="648" height="177">
	<style>
		tspan { white-space:pre }
		.shp0 { fill: #000000 } 
		.shp1 { fill: #41c7f1 } 
		.shp2 { fill: #a784bc } 
		.shp3 { fill: #4279bd } 
		.shp4 { fill: #705ea9 } 
		.shp5 { fill: #4a54a4 } 
		.shp6 { fill: #d41a64 } 
		.shp7 { fill: #bc1e67 } 
		.shp8 { fill: #010101 } 
		.shp9 { fill: #030305 } 
	</style>
	<g id="XMLID_79_">
		<g id="XMLID_98_">
			<path id="XMLID_46_" class="shp0" d="M203 78.4L164.6 78.4C159 78.4 154.4 83 154.4 88.6C154.4 94.2 159 98.8 164.6 98.8L203 98.8C208.6 98.8 213.2 94.2 213.2 88.6C213.2 83 208.7 78.4 203 78.4Z" />
			<path id="XMLID_45_" class="shp0" d="M299 88.6L332.9 46.3C336.4 42.1 335.7 35.4 331.5 31.8C329.7 30.4 327.3 29.7 325.2 29.7C322 29.7 319.2 31.1 317.4 33.6L281.4 78.4L255.3 78.4L255.3 40C255.3 34.4 250.7 29.8 245.1 29.8C239.5 29.8 234.9 34.4 234.9 40L234.9 137C234.9 142.6 239.5 147.2 245.1 147.2C250.7 147.2 255.3 142.6 255.3 137L255.3 98.9L281 98.9L317 143.3C318.8 145.8 321.9 147.2 324.8 147.2C327.3 147.2 329.4 146.5 331.1 145.1C333.2 143.3 334.6 140.9 335 138.4C335.4 135.6 334.6 133.1 332.9 131L299 88.6Z" />
			<path id="XMLID_100_" fill-rule="evenodd" class="shp0" d="M446 43.8C453 51.9 456.9 62.9 456.9 73.8L456.9 103.8C456.9 114.8 453.1 125.7 446 133.8C437.9 143 427 147.9 414.3 147.9L392.8 147.9C380.1 147.9 369.2 143 361.1 133.8C354.1 125.7 350.2 114.7 350.2 103.8L350.2 73.8C350.2 62.8 354 51.9 361.1 43.8C369.2 34.6 380.1 29.7 392.8 29.7L414.3 29.7C426.7 29.7 437.9 34.6 446 43.8ZM370.2 103.4C370.2 118.9 381.5 127 392.8 127L414.3 127C425.6 127 436.9 118.9 436.9 103.4L436.9 73.4C436.9 57.9 425.6 49.8 414.3 49.8L392.8 49.8C381.5 49.8 370.2 57.9 370.2 73.4L370.2 103.4Z" />
			<path id="XMLID_36_" class="shp0" d="M633.7 43.8C625.6 34.6 614.7 29.7 602 29.7L593.5 29.7C580.8 29.7 569.9 34.6 561.8 43.8C561.4 44.2 561.1 44.5 560.7 44.9C560.3 44.5 560 44.2 559.6 43.8C551.5 34.6 540.6 29.7 527.9 29.7L519.8 29.7C507.1 29.7 496.2 34.6 488.1 43.8C481 51.9 477.2 62.8 477.2 73.8L477.2 137.3C477.2 142.9 481.8 147.5 487.4 147.5C493 147.5 497.6 142.9 497.6 137.3L497.6 73.8C497.6 58.3 508.9 50.2 520.2 50.2L528.7 50.2C540 50.2 551.3 58.3 551.3 73.8L551.3 137.3C551.3 142.9 555.9 147.5 561.5 147.5C567.1 147.5 571.7 142.9 571.7 137.3L571.7 73.8C571.7 58.3 583 50.2 594.3 50.2L602.8 50.2C614.1 50.2 625.4 58.3 625.4 73.8L625.4 137.3C625.4 142.9 630 147.5 635.6 147.5C641.2 147.5 645.8 142.9 645.8 137.3L645.8 73.8C645 62.5 640.8 51.6 633.7 43.8Z" />
		</g>
		<g id="XMLID_80_">
			<path id="XMLID_35_" class="shp1" d="M78.2 99.5L5.5 26.8C-0.5 20.8 -0.5 11.3 5.5 5.3L5.9 4.9C11.9 -1.1 21.4 -1.1 27.4 4.9L100.1 77.6C106.1 83.6 106.1 93.1 100.1 99.1L99.7 99.5C93.7 105.5 84.2 105.5 78.2 99.5Z" />
			<path id="XMLID_34_" class="shp2" d="M150.5 171.9L77.8 99.2C71.8 93.2 71.8 83.7 77.8 77.7L78.2 77.3C84.2 71.3 93.7 71.3 99.7 77.3L172.4 150C178.4 156 178.4 165.5 172.4 171.5L172 171.9C166 177.9 156.5 177.9 150.5 171.9Z" />
			<path id="XMLID_33_" class="shp3" d="M78.2 99.5L31.3 52.6C25.3 46.6 25.3 37.1 31.3 31.1L31.7 30.7C37.7 24.7 47.2 24.7 53.2 30.7L100.1 77.6C106.1 83.6 106.1 93.1 100.1 99.1L99.7 99.5C93.7 105.5 84.2 105.5 78.2 99.5Z" />
			<path id="XMLID_32_" class="shp4" d="M121.9 143.3L77.8 99.2C71.8 93.2 71.8 83.7 77.8 77.7L78.2 77.3C84.2 71.3 93.7 71.3 99.7 77.3L143.4 121C149.4 127 149.4 136.5 143.4 142.5L143 142.9C137.1 148.9 127.5 148.9 121.9 143.3Z" />
			<path id="XMLID_31_" class="shp5" d="M108.5 129.9L77.8 99.2C71.8 93.2 71.8 83.7 77.8 77.7L78.2 77.3C84.2 71.3 93.7 71.3 99.7 77.3L130.4 108C136.4 114 136.4 123.5 130.4 129.5L130 129.9C124 135.9 114.5 135.9 108.5 129.9Z" />
			<path id="XMLID_30_" class="shp6" d="M150.5 5.4L5.8 150C-0.2 156 -0.2 165.5 5.8 171.5L6.2 171.9C12.2 177.9 21.7 177.9 27.7 171.9L172.3 27.3C178.3 21.3 178.3 11.8 172.3 5.8L171.9 5.4C166 -0.6 156.5 -0.6 150.5 5.4Z" />
			<path id="XMLID_29_" class="shp7" d="M119.4 36.4L25.6 130.2C19.6 136.2 19.6 145.7 25.6 151.7L26 152.1C32 158.1 41.5 158.1 47.5 152.1L141.3 58.3C147.3 52.3 147.3 42.8 141.3 36.8L140.9 36.4C134.9 30.8 125.1 30.8 119.4 36.4Z" />
			<g id="XMLID_81_">
				<g id="XMLID_59_">
					<path id="XMLID_61_" class="shp8" d="M103.6 52.3L39.4 116.5C33.4 122.5 33.4 132 39.4 138L39.8 138.4C45.8 144.4 55.3 144.4 61.3 138.4L125.5 74.2C131.5 68.2 131.5 58.7 125.5 52.7L125.1 52.3C119.1 46.3 109.6 46.3 103.6 52.3Z" />
					<path id="XMLID_60_" class="shp8" d="M99.7 121.1L44 65.4C38 59.4 38 49.9 44 43.9L44.4 43.5C50.4 37.5 59.9 37.5 65.9 43.5L121.6 99.2C127.6 105.2 127.6 114.7 121.6 120.7L121.2 121.1C115.2 127.1 105.7 127.1 99.7 121.1Z" />
				</g>
				<g id="XMLID_56_">
					<path id="XMLID_58_" class="shp9" d="M103.6 52.3L39.4 116.5C33.4 122.5 33.4 132 39.4 138L39.8 138.4C45.8 144.4 55.3 144.4 61.3 138.4L125.5 74.2C131.5 68.2 131.5 58.7 125.5 52.7L125.1 52.3C119.1 46.3 109.6 46.3 103.6 52.3Z" />
					<path id="XMLID_57_" class="shp9" d="M99.7 121.1L44 65.4C38 59.4 38 49.9 44 43.9L44.4 43.5C50.4 37.5 59.9 37.5 65.9 43.5L121.6 99.2C127.6 105.2 127.6 114.7 121.6 120.7L121.2 121.1C115.2 127.1 105.7 127.1 99.7 121.1Z" />
				</g>
			</g>
		</g>
	</g>
</svg>